<svg width="26" height="27" viewBox="0 0 26 27" fill="none" xmlns="http://www.w3.org/2000/svg">
<g id="cib:apple" clip-path="url(#clip0_654_28792)">
<path id="Vector" d="M7.66835 25.6772C7.15573 25.3362 6.70141 24.9148 6.32285 24.4292C5.90643 23.928 5.52061 23.4022 5.16747 22.8546C4.33879 21.6406 3.68891 20.3137 3.23779 18.9148C2.69585 17.2898 2.43341 15.7322 2.43341 14.2088C2.43341 12.5074 2.80147 11.0221 3.52135 9.77415C4.05498 8.79869 4.83956 7.98354 5.79391 7.41302C6.71879 6.83856 7.78148 6.52419 8.87003 6.50302C9.2511 6.50302 9.66141 6.55827 10.0969 6.6639C10.4097 6.75246 10.7908 6.89221 11.2563 7.06609C11.8487 7.2944 12.1745 7.43415 12.285 7.46827C12.6319 7.59502 12.9236 7.65027 13.1527 7.65027C13.3266 7.65027 13.572 7.59502 13.8507 7.51052C14.0075 7.45527 14.3032 7.35777 14.7265 7.17659C15.1458 7.02384 15.4757 6.89302 15.7381 6.79552C16.1403 6.6769 16.5295 6.56721 16.8764 6.51196C17.2877 6.44712 17.7051 6.42994 18.1203 6.46077C18.8399 6.5078 19.5487 6.66029 20.2239 6.91334C21.3281 7.35777 22.221 8.05165 22.8857 9.03802C22.6047 9.21116 22.3411 9.41087 22.0983 9.6344C21.5699 10.1029 21.1198 10.6528 20.765 11.2635C20.3013 12.0979 20.0609 13.038 20.0671 13.9926C20.0842 15.1651 20.3848 16.1978 20.9771 17.0907C21.4126 17.7525 21.9785 18.3184 22.6403 18.7539C22.9791 18.9822 23.2708 19.139 23.5503 19.2446C23.4195 19.6509 23.2797 20.0441 23.1148 20.4341C22.7407 21.3087 22.2873 22.1472 21.7603 22.9391C21.2907 23.6208 20.9227 24.1286 20.6432 24.4666C20.2077 24.9825 19.7884 25.3766 19.3651 25.6512C18.8995 25.96 18.3495 26.1249 17.7905 26.1249C17.4119 26.1394 17.0334 26.0936 16.6692 25.9892C16.3564 25.8836 16.0468 25.769 15.7422 25.6382C15.4254 25.4927 15.0988 25.3697 14.7647 25.2701C13.939 25.0581 13.0732 25.0567 12.2468 25.2661C11.908 25.3636 11.5822 25.4773 11.2604 25.6171C10.8078 25.8072 10.5072 25.9348 10.3333 25.9892C9.98641 26.0908 9.62647 26.1541 9.26247 26.1753C8.69941 26.1753 8.17453 26.0144 7.65453 25.6886L7.66835 25.6772ZM15.0946 5.67752C14.3585 6.04559 13.6557 6.2024 12.9577 6.15121C12.848 5.4484 12.9577 4.72934 13.2494 3.94202C13.4977 3.27501 13.8647 2.65842 14.3325 2.12202C14.8265 1.55735 15.4259 1.09452 16.0972 0.759461C16.8122 0.391398 17.4939 0.192336 18.1455 0.163086C18.23 0.899211 18.1455 1.62315 17.875 2.40559C17.6246 3.09725 17.2583 3.74128 16.7919 4.31009C16.3158 4.87553 15.7316 5.34016 15.0735 5.67671L15.0946 5.67752Z" fill="white"/>
</g>
<defs>
<clipPath id="clip0_654_28792">
<rect width="26" height="26" fill="white" transform="translate(0 0.164062)"/>
</clipPath>
</defs>
</svg>
