<svg width="26" height="27" viewBox="0 0 26 27" fill="none" xmlns="http://www.w3.org/2000/svg">
<path d="M6.42014 15.6292L5.59739 18.7006L2.59026 18.7642C1.69158 17.0973 1.18182 15.1902 1.18182 13.1636C1.18182 11.2038 1.65843 9.35578 2.50324 7.72852H2.50389L5.18108 8.21934L6.35385 10.8805C6.10839 11.5961 5.9746 12.3642 5.9746 13.1636C5.9747 14.0311 6.13184 14.8623 6.42014 15.6292Z" fill="#FBBB00"/>
<path d="M24.6117 10.9561C24.7474 11.671 24.8182 12.4093 24.8182 13.1638C24.8182 14.0099 24.7292 14.8353 24.5598 15.6314C23.9845 18.3405 22.4812 20.7061 20.3987 22.3801L20.3981 22.3794L17.026 22.2074L16.5488 19.2281C17.9306 18.4178 19.0105 17.1496 19.5793 15.6314H13.2598V10.9561H19.6715H24.6117Z" fill="#518EF8"/>
<path d="M20.3981 22.3799L20.3987 22.3805C18.3734 24.0084 15.8006 24.9824 13 24.9824C8.49936 24.9824 4.58639 22.4669 2.59027 18.7649L6.42015 15.6299C7.41818 18.2935 9.98767 20.1896 13 20.1896C14.2948 20.1896 15.5078 19.8396 16.5487 19.2286L20.3981 22.3799Z" fill="#28B446"/>
<path d="M20.5436 4.06647L16.715 7.20087C15.6377 6.52751 14.3643 6.13853 13.0001 6.13853C9.91953 6.13853 7.30199 8.12163 6.35395 10.8808L2.50394 7.72881H2.5033C4.47019 3.93661 8.43252 1.3457 13.0001 1.3457C15.8676 1.3457 18.4968 2.36714 20.5436 4.06647Z" fill="#F14336"/>
</svg>
