<svg width="26" height="26" viewBox="0 0 26 26" fill="none" xmlns="http://www.w3.org/2000/svg">
<path d="M24.9013 22.8724L24.8801 22.9351C25.3145 23.2727 25.4976 23.8799 25.3478 24.4267L25.3477 24.4269C25.159 25.1145 24.4722 25.5822 23.7597 25.3342C16.5357 22.8452 9.25594 22.9175 2.23993 25.3344C1.5327 25.5791 0.842638 25.1166 0.652511 24.4274L0.652375 24.4269C0.466187 23.7486 0.792973 22.9778 1.47518 22.7432C1.47529 22.7431 1.4754 22.7431 1.47552 22.7431L24.9013 22.8724ZM24.9013 22.8724L24.5251 22.7427M24.9013 22.8724L24.5251 22.7427M24.5251 22.7427C20.2334 21.2636 15.904 20.6207 11.5767 20.8033M24.5251 22.7427L11.5767 20.8033M11.5767 20.8033C12.1867 16.4039 12.7109 12.2738 12.4816 8.85049C12.2436 5.29887 11.1869 2.40195 8.46872 0.771157L11.5767 20.8033ZM8.46858 0.771072C8.089 0.543002 7.62615 0.542976 7.24655 0.770993L8.46858 0.771072ZM9.91957 8.3168C8.31035 9.07127 6.86171 10.3135 5.71086 11.8829C5.63274 10.0478 5.70026 8.43208 5.98969 7.07337C6.31294 5.55588 6.90639 4.38773 7.85735 3.58495C9.05258 4.59489 9.68117 6.188 9.91957 8.3168ZM10.0222 11.3068C9.95206 14.0888 9.51334 17.3681 9.00733 21.0012C8.38477 21.0804 7.4698 21.2193 6.75693 21.3476C6.53651 19.7671 6.30823 18.1209 6.12174 16.5685C6.8831 14.3329 8.33189 12.4269 10.0222 11.3068Z" fill="#6B98FF" stroke="#6B98FF" stroke-width="0.8"/>
<path d="M19.7977 11.9448C19.3198 12.2006 18.7247 12.5186 17.8576 12.5186C16.9944 12.5186 16.4019 12.2019 15.9256 11.9468C15.5205 11.7298 15.1998 11.5586 14.7145 11.5586C14.2408 11.5586 13.8574 11.129 13.8574 10.5987C13.8574 10.0686 14.2408 9.63868 14.7145 9.63868C15.5871 9.63868 16.1833 9.9571 16.6626 10.2131L16.6648 10.2143L19.7977 11.9448ZM22.0138 12.298L22.0138 12.298L22.0234 12.3031C22.5057 12.5609 23.1748 12.9186 24.1427 12.9186C24.7565 12.9186 25.2208 12.4646 25.3581 11.9038L25.3999 11.8967V11.5586C25.3999 10.8518 24.879 10.1986 24.1428 10.1986C23.7746 10.1986 23.5378 10.0775 23.1291 9.8594L23.1175 9.8532C22.6356 9.59581 21.967 9.23867 20.9997 9.23867C20.0333 9.23867 19.3647 9.59595 18.8831 9.85328L18.8711 9.85971L18.871 9.85973C18.4638 10.0774 18.2259 10.1986 17.8576 10.1986C17.4941 10.1986 17.2732 10.0864 16.8537 9.86168L16.8533 9.86146L16.841 9.85493C16.3574 9.59659 15.6874 9.23868 14.7145 9.23868C13.9784 9.23868 13.4574 9.8916 13.4574 10.5987C13.4574 11.306 13.9784 11.9586 14.7145 11.9586C15.0885 11.9586 15.3287 12.0809 15.7368 12.2994C15.7368 12.2994 15.7368 12.2994 15.7368 12.2994L15.7453 12.304C16.226 12.5614 16.8928 12.9186 17.8576 12.9186C18.8259 12.9186 19.4952 12.5604 19.9774 12.3023L19.9862 12.2976C20.3934 12.0799 20.6314 11.9587 20.9996 11.9587C21.3678 11.9587 21.6058 12.0799 22.0138 12.298Z" fill="#6B98FF" stroke="#6B98FF" stroke-width="0.8"/>
<path d="M15.9256 16.7466C15.5205 16.5296 15.1998 16.3584 14.7145 16.3584C14.2408 16.3584 13.8574 15.9288 13.8574 15.3985C13.8574 14.8684 14.2408 14.4385 14.7145 14.4385C15.5871 14.4385 16.1833 14.7569 16.6626 15.0129L16.6648 15.0141L19.9864 17.0973C20.3935 16.8797 20.6314 16.7585 20.9996 16.7585C21.3678 16.7585 21.6058 16.8797 22.0138 17.0978L22.0138 17.0978L22.0234 17.1029C22.5057 17.3607 23.1748 17.7184 24.1427 17.7184C24.7565 17.7184 25.2208 17.2644 25.3581 16.7036L25.3999 16.6965V16.3584C25.3999 15.6516 24.879 14.9984 24.1428 14.9984C23.7746 14.9984 23.5378 14.8773 23.1291 14.6592L23.1175 14.653C22.6356 14.3956 21.967 14.0385 20.9997 14.0385C20.0333 14.0385 19.3647 14.3958 18.8831 14.6531L18.8711 14.6595L18.871 14.6595C18.4638 14.8772 18.2259 14.9984 17.8576 14.9984C17.4941 14.9984 17.2732 14.8862 16.8537 14.6615L16.8533 14.6613L16.841 14.6547C16.3574 14.3964 15.6874 14.0385 14.7145 14.0385C13.9784 14.0385 13.4574 14.6914 13.4574 15.3985C13.4574 16.1058 13.9784 16.7584 14.7145 16.7584C15.0885 16.7584 15.3287 16.8807 15.7368 17.0992L15.9256 16.7466ZM15.9256 16.7466C16.4019 17.0017 16.9944 17.3184 17.8576 17.3184C18.7247 17.3184 19.3198 17.0004 19.7977 16.7446L19.7982 16.7443C20.2013 16.5288 20.5201 16.3585 20.9996 16.3585C21.4792 16.3585 21.798 16.5289 22.202 16.7449L22.2023 16.745C22.6804 17.0006 23.2755 17.3184 24.1427 17.3184C24.6164 17.3184 24.9998 16.8885 24.9998 16.3584M15.9256 16.7466L24.9998 16.3584M24.9998 16.3584L24.9999 16.3584L24.9998 16.3584ZM19.9774 17.1021L19.9862 17.0974L15.7368 17.0992L15.7453 17.1038C16.226 17.3612 16.8928 17.7184 17.8576 17.7184C18.8259 17.7184 19.4952 17.3602 19.9774 17.1021Z" fill="#6B98FF" stroke="#6B98FF" stroke-width="0.8"/>
</svg>
