<svg width="27" height="26" viewBox="0 0 27 26" fill="none" xmlns="http://www.w3.org/2000/svg">
<path d="M25.8448 23.0903C26.1821 23.317 26.4 23.7087 26.4 24.1428C26.4 24.8239 25.8638 25.4 25.1724 25.4H14.4138C9.97315 25.4 6.20531 23.0756 4.35913 19.1758L4.35912 19.1757C2.75517 15.7872 3.12862 12.3463 4.45013 9.9302C5.75596 7.54277 8.0865 6.03267 10.3953 6.85265C10.7834 6.99002 11.1259 7.19104 11.4109 7.44605C11.4704 7.27517 11.5162 7.08243 11.5383 6.86834L25.8448 23.0903ZM25.8448 23.0903L26.0102 22.8855H25.1728H22.5288L23.0663 20.101L23.0664 20.1006C23.1608 19.6093 22.9618 19.1004 22.5488 18.8147L22.5485 18.8146L20.7423 17.5673L21.1553 15.4279L24.1754 15.8449L25.8448 23.0903ZM15.5253 14.6502L12.5954 14.2456C11.9123 14.1513 11.455 13.5094 11.5422 12.8349L11.5422 12.8348C11.6298 12.1586 12.2361 11.6592 12.9228 11.7537L12.923 11.7537L24.5033 13.3529C25.1864 13.4472 25.6436 14.0891 25.5565 14.7636C25.5565 14.7636 25.5565 14.7636 25.5565 14.7636L25.1598 14.7123L15.5253 14.6502ZM15.5253 14.6502L14.8585 18.7952L14.8585 18.7956C14.7954 19.1904 14.9183 19.595 15.1966 19.8836L15.1968 19.8838L16.3681 21.0968L15.9364 22.8855H14.4143C10.9134 22.8855 7.99166 21.0843 6.56843 18.0788C5.37921 15.566 5.62852 13.1218 6.45609 11.4221C6.87108 10.5698 7.42358 9.92049 7.99417 9.53896C8.56421 9.15781 9.11977 9.061 9.59177 9.22885L9.59262 9.22915C9.77862 9.29482 9.83024 9.37557 9.84868 9.41293C9.87376 9.4637 9.87613 9.51434 9.87613 9.57125C9.87613 10.252 10.4122 10.8284 11.1038 10.8284C11.771 10.8284 12.446 10.3385 12.9482 9.70044C13.4671 9.04137 13.8764 8.13619 13.9796 7.13167M15.5253 14.6502L1.71166 3.55297C1.43427 2.93272 1.69 2.18715 2.30719 1.89112L2.30748 1.89099C4.09261 1.03647 5.93843 0.6 7.79348 0.6C9.4215 0.6 11.0667 1.20464 12.2588 2.32623C13.4594 3.45582 14.1885 5.10021 13.9796 7.13167M13.9796 7.13167L13.5816 7.0908L13.9796 7.13167ZM18.5975 19.8302L18.182 19.3996H19.0048L20.4999 20.4321L20.0263 22.8853H18.4647L18.9159 21.0164C18.957 20.8476 18.9626 20.6747 18.9355 20.5079H19.2515L18.5975 19.8302ZM1.71173 3.55314C1.99091 4.1777 2.719 4.46964 3.34774 4.16851L1.71173 3.55314ZM3.34785 4.16846C4.81416 3.4666 6.30886 3.11415 7.79325 3.11415C8.71233 3.11415 9.72487 3.43224 10.465 4.0598C11.191 4.67531 11.6681 5.59683 11.5383 6.86807L3.34785 4.16846ZM17.9595 14.9861L18.7178 15.0908L18.3713 16.8852H17.654L17.9595 14.9861Z" fill="#6B98FF" stroke="#6B98FF" stroke-width="0.8"/>
<path d="M0.987165 8.107L0.987231 8.10706C1.48261 8.58392 2.269 8.55813 2.73175 8.04114C3.48435 7.20216 4.36176 6.69972 5.34387 6.52527C5.3449 6.52508 5.34593 6.5249 5.34696 6.52471L5.34715 6.52468C6.02517 6.4045 6.45982 5.74757 6.34836 5.07622C6.23817 4.40156 5.61218 3.92826 4.93076 4.04668L4.92956 4.0469C3.38685 4.31988 2.03745 5.09794 0.924049 6.34017L0.924035 6.34019C0.469885 6.84694 0.496663 7.63462 0.987165 8.107Z" fill="#6B98FF" stroke="#6B98FF" stroke-width="0.8"/>
<path d="M18.3798 12.5426C19.9829 12.5426 21.2624 11.1969 21.2624 9.57132C21.2624 7.94574 19.9829 6.6 18.3798 6.6C16.7766 6.6 15.4971 7.94574 15.4971 9.57132C15.4971 11.1969 16.7766 12.5426 18.3798 12.5426ZM18.3798 9.11413C18.6022 9.11413 18.8074 9.30622 18.8074 9.57132C18.8074 9.83642 18.6022 10.0285 18.3798 10.0285C18.1573 10.0285 17.9521 9.83642 17.9521 9.57132C17.9521 9.30622 18.1573 9.11413 18.3798 9.11413Z" fill="#6B98FF" stroke="#6B98FF" stroke-width="0.8"/>
</svg>
