<svg width="56" height="56" viewBox="0 0 56 56" fill="none" xmlns="http://www.w3.org/2000/svg">
<rect x="2.5" y="2.5" width="51" height="51" rx="25.5" fill="white" stroke="#A0D1FF" stroke-width="5"/>
<mask id="path-2-outside-1_649_20583" maskUnits="userSpaceOnUse" x="16" y="18" width="24" height="21" fill="black">
<rect fill="white" x="16" y="18" width="24" height="21"/>
<path d="M23.325 21.3333C23.325 22.6208 22.4622 23.6667 21.4 23.6667C20.3368 23.6667 19.475 22.6208 19.475 21.3333C19.475 20.0446 20.3368 19 21.4 19C22.4622 19 23.325 20.0446 23.325 21.3333ZM21.95 25C23.2691 25 23.376 26.6649 22.9228 27.9038C22.651 28.6469 22.5 29.4691 22.5 30.3333C22.5 31.4257 22.7229 32.4498 23.1487 33.3314C23.4024 33.8565 23.6 34.4169 23.6 35C23.6 35.7375 23.1084 36.3333 22.5 36.3333H20.3C19.6926 36.3333 19.2 35.7375 19.2 35C19.2 34.3091 18.8043 33.6924 18.3281 33.1918C17.5145 32.3365 17 31.0755 17 29.6667C17 27.0875 18.7236 25 20.85 25H21.95ZM-nan -nanL19.2 27.9042C18.8576 28.3708 18.65 28.9917 18.65 29.6667C18.65 30.2607 19.2 30.1462 19.2 29.5522V27.9042L-nan -nanZM32.4 35C32.4 34.4159 32.5904 33.853 32.8413 33.3255C33.2601 32.4453 33.5 31.4232 33.5 30.3333C33.5 29.4696 33.3492 28.648 33.0777 27.9053C32.6246 26.6655 32.73 25 34.05 25H35.15C37.2778 25 39 27.0875 39 29.6667C39 31.0753 38.4848 32.3362 37.6716 33.1915C37.1955 33.6923 36.8 34.309 36.8 35C36.8 35.7375 36.3084 36.3333 35.7 36.3333H33.5C32.8916 36.3333 32.4 35.7375 32.4 35ZM-nan -nanL36.8 31.4292C37.1128 30.9625 37.35 30.3417 37.35 29.6667C37.35 29.1038 36.8 29.2142 36.8 29.7771V31.4292L-nan -nanZM36.525 21.3333C36.525 22.6208 35.6622 23.6667 34.6 23.6667C33.5378 23.6667 32.675 22.6208 32.675 21.3333C32.675 20.0446 33.5378 19 34.6 19C35.6622 19 36.525 20.0446 36.525 21.3333ZM25.8 21.6667C25.8 20.1938 26.7866 19 28 19C29.2134 19 30.2 20.1938 30.2 21.6667C30.2 23.1375 29.2134 24.3333 28 24.3333C26.7866 24.3333 25.8 23.1375 25.8 21.6667ZM32.4 30.3333C32.4 31.4805 32.0583 32.5298 31.4922 33.3417C30.8611 34.2469 30.2 35.2298 30.2 36.3333C30.2 37.0708 29.7084 37.6667 29.1 37.6667H26.9C26.2916 37.6667 25.8 37.0708 25.8 36.3333C25.8 35.2298 25.1389 34.2469 24.5078 33.3417C23.9417 32.5298 23.6 31.4805 23.6 30.3333C23.6 27.7542 25.3222 25.6667 27.45 25.6667H28.55C30.6778 25.6667 32.4 27.7542 32.4 30.3333ZM-nan -nanL25.8 32.0958V30.448C25.8 29.8526 25.25 29.7379 25.25 30.3333C25.25 31.0083 25.4563 31.6292 25.8 32.0958L-nan -nanZM30.7476 30.2164C30.7264 29.6891 30.2 29.7991 30.2 30.3268C30.2 30.8557 30.7292 30.9656 30.7481 30.437C30.7494 30.4026 30.75 30.3681 30.75 30.3333C30.75 30.2942 30.7492 30.2552 30.7476 30.2164Z"/>
</mask>
<path d="M23.325 21.3333C23.325 22.6208 22.4622 23.6667 21.4 23.6667C20.3368 23.6667 19.475 22.6208 19.475 21.3333C19.475 20.0446 20.3368 19 21.4 19C22.4622 19 23.325 20.0446 23.325 21.3333ZM21.95 25C23.2691 25 23.376 26.6649 22.9228 27.9038C22.651 28.6469 22.5 29.4691 22.5 30.3333C22.5 31.4257 22.7229 32.4498 23.1487 33.3314C23.4024 33.8565 23.6 34.4169 23.6 35C23.6 35.7375 23.1084 36.3333 22.5 36.3333H20.3C19.6926 36.3333 19.2 35.7375 19.2 35C19.2 34.3091 18.8043 33.6924 18.3281 33.1918C17.5145 32.3365 17 31.0755 17 29.6667C17 27.0875 18.7236 25 20.85 25H21.95ZM-nan -nanL19.2 27.9042C18.8576 28.3708 18.65 28.9917 18.65 29.6667C18.65 30.2607 19.2 30.1462 19.2 29.5522V27.9042L-nan -nanZM32.4 35C32.4 34.4159 32.5904 33.853 32.8413 33.3255C33.2601 32.4453 33.5 31.4232 33.5 30.3333C33.5 29.4696 33.3492 28.648 33.0777 27.9053C32.6246 26.6655 32.73 25 34.05 25H35.15C37.2778 25 39 27.0875 39 29.6667C39 31.0753 38.4848 32.3362 37.6716 33.1915C37.1955 33.6923 36.8 34.309 36.8 35C36.8 35.7375 36.3084 36.3333 35.7 36.3333H33.5C32.8916 36.3333 32.4 35.7375 32.4 35ZM-nan -nanL36.8 31.4292C37.1128 30.9625 37.35 30.3417 37.35 29.6667C37.35 29.1038 36.8 29.2142 36.8 29.7771V31.4292L-nan -nanZM36.525 21.3333C36.525 22.6208 35.6622 23.6667 34.6 23.6667C33.5378 23.6667 32.675 22.6208 32.675 21.3333C32.675 20.0446 33.5378 19 34.6 19C35.6622 19 36.525 20.0446 36.525 21.3333ZM25.8 21.6667C25.8 20.1938 26.7866 19 28 19C29.2134 19 30.2 20.1938 30.2 21.6667C30.2 23.1375 29.2134 24.3333 28 24.3333C26.7866 24.3333 25.8 23.1375 25.8 21.6667ZM32.4 30.3333C32.4 31.4805 32.0583 32.5298 31.4922 33.3417C30.8611 34.2469 30.2 35.2298 30.2 36.3333C30.2 37.0708 29.7084 37.6667 29.1 37.6667H26.9C26.2916 37.6667 25.8 37.0708 25.8 36.3333C25.8 35.2298 25.1389 34.2469 24.5078 33.3417C23.9417 32.5298 23.6 31.4805 23.6 30.3333C23.6 27.7542 25.3222 25.6667 27.45 25.6667H28.55C30.6778 25.6667 32.4 27.7542 32.4 30.3333ZM-nan -nanL25.8 32.0958V30.448C25.8 29.8526 25.25 29.7379 25.25 30.3333C25.25 31.0083 25.4563 31.6292 25.8 32.0958L-nan -nanZM30.7476 30.2164C30.7264 29.6891 30.2 29.7991 30.2 30.3268C30.2 30.8557 30.7292 30.9656 30.7481 30.437C30.7494 30.4026 30.75 30.3681 30.75 30.3333C30.75 30.2942 30.7492 30.2552 30.7476 30.2164Z" fill="#6B98FF"/>
<path d="M24.5078 33.3417L24.0977 33.6277L24.5078 33.3417ZM30.7476 30.2164L31.2472 30.1963L30.7476 30.2164ZM31.4922 33.3417L31.082 33.0557L31.4922 33.3417ZM32.8413 33.3255L32.3898 33.1107L32.8413 33.3255ZM37.6716 33.1915L38.034 33.536L37.6716 33.1915ZM18.3281 33.1918L18.6904 32.8472L18.3281 33.1918ZM22.825 21.3333C22.825 22.439 22.1004 23.1667 21.4 23.1667V24.1667C22.824 24.1667 23.825 22.8027 23.825 21.3333H22.825ZM21.4 23.1667C20.6988 23.1667 19.975 22.4392 19.975 21.3333H18.975C18.975 22.8025 19.9748 24.1667 21.4 24.1667V23.1667ZM19.975 21.3333C19.975 20.2264 20.6986 19.5 21.4 19.5V18.5C19.975 18.5 18.975 19.8627 18.975 21.3333H19.975ZM21.4 19.5C22.1005 19.5 22.825 20.2266 22.825 21.3333H23.825C23.825 19.8626 22.8239 18.5 21.4 18.5V19.5ZM22.4532 27.732C22.1611 28.5306 22 29.4109 22 30.3333H23C23 29.5272 23.1408 28.7632 23.3924 28.0756L22.4532 27.732ZM22 30.3333C22 31.4928 22.2366 32.5925 22.6985 33.5489L23.599 33.114C23.2092 32.3071 23 31.3585 23 30.3333H22ZM23.1 35C23.1 35.5557 22.7466 35.8333 22.5 35.8333V36.8333C23.4703 36.8333 24.1 35.9193 24.1 35H23.1ZM22.5 35.8333H20.3V36.8333H22.5V35.8333ZM20.3 35.8333C20.0542 35.8333 19.7 35.5553 19.7 35H18.7C18.7 35.9197 19.331 36.8333 20.3 36.8333V35.8333ZM18.6904 32.8472C17.9714 32.0913 17.5 30.9565 17.5 29.6667H16.5C16.5 31.1945 17.0576 32.5816 17.9658 33.5364L18.6904 32.8472ZM17.5 29.6667C17.5 27.2695 19.0853 25.5 20.85 25.5V24.5C18.3618 24.5 16.5 26.9055 16.5 29.6667H17.5ZM20.85 25.5H21.95V24.5H20.85V25.5ZM18.7969 27.6084C18.388 28.1657 18.15 28.8915 18.15 29.6667H19.15C19.15 29.0919 19.3273 28.576 19.6031 28.1999L18.7969 27.6084ZM19.7 29.5522V27.9042H18.7V29.5522H19.7ZM33.2928 33.5403C33.7441 32.5918 34 31.4963 34 30.3333H33C33 31.3501 32.7761 32.2987 32.3898 33.1107L33.2928 33.5403ZM34 30.3333C34 29.4116 33.8391 28.5318 33.5474 27.7336L32.6081 28.0769C32.8594 28.7642 33 29.5277 33 30.3333H34ZM34.05 25.5H35.15V24.5H34.05V25.5ZM35.15 25.5C36.916 25.5 38.5 27.2693 38.5 29.6667H39.5C39.5 26.9057 37.6396 24.5 35.15 24.5V25.5ZM38.5 29.6667C38.5 30.9561 38.0281 32.0909 37.3093 32.847L38.034 33.536C38.9416 32.5814 39.5 31.1945 39.5 29.6667H38.5ZM36.3 35C36.3 35.5557 35.9466 35.8333 35.7 35.8333V36.8333C36.6703 36.8333 37.3 35.9193 37.3 35H36.3ZM35.7 35.8333H33.5V36.8333H35.7V35.8333ZM33.5 35.8333C33.2534 35.8333 32.9 35.5557 32.9 35H31.9C31.9 35.9193 32.5297 36.8333 33.5 36.8333V35.8333ZM37.2153 31.7076C37.5738 31.1728 37.85 30.4567 37.85 29.6667H36.85C36.85 30.2266 36.6519 30.7522 36.3847 31.1508L37.2153 31.7076ZM36.3 29.7771V31.4292H37.3V29.7771H36.3ZM36.025 21.3333C36.025 22.439 35.3004 23.1667 34.6 23.1667V24.1667C36.024 24.1667 37.025 22.8027 37.025 21.3333H36.025ZM34.6 23.1667C33.8996 23.1667 33.175 22.439 33.175 21.3333H32.175C32.175 22.8027 33.176 24.1667 34.6 24.1667V23.1667ZM33.175 21.3333C33.175 20.2266 33.8995 19.5 34.6 19.5V18.5C33.1761 18.5 32.175 19.8626 32.175 21.3333H33.175ZM34.6 19.5C35.3005 19.5 36.025 20.2266 36.025 21.3333H37.025C37.025 19.8626 36.0239 18.5 34.6 18.5V19.5ZM26.3 21.6667C26.3 20.3759 27.1482 19.5 28 19.5V18.5C26.425 18.5 25.3 20.0116 25.3 21.6667H26.3ZM28 19.5C28.8518 19.5 29.7 20.3759 29.7 21.6667H30.7C30.7 20.0116 29.575 18.5 28 18.5V19.5ZM29.7 21.6667C29.7 22.9557 28.8516 23.8333 28 23.8333V24.8333C29.5753 24.8333 30.7 23.3193 30.7 21.6667H29.7ZM28 23.8333C27.1484 23.8333 26.3 22.9557 26.3 21.6667H25.3C25.3 23.3193 26.4247 24.8333 28 24.8333V23.8333ZM31.9 30.3333C31.9 31.3823 31.5874 32.3309 31.082 33.0557L31.9023 33.6277C32.5292 32.7286 32.9 31.5788 32.9 30.3333H31.9ZM29.7 36.3333C29.7 36.889 29.3466 37.1667 29.1 37.1667V38.1667C30.0703 38.1667 30.7 37.2527 30.7 36.3333H29.7ZM29.1 37.1667H26.9V38.1667H29.1V37.1667ZM26.9 37.1667C26.6534 37.1667 26.3 36.889 26.3 36.3333H25.3C25.3 37.2527 25.9297 38.1667 26.9 38.1667V37.1667ZM24.918 33.0557C24.4126 32.3309 24.1 31.3823 24.1 30.3333H23.1C23.1 31.5788 23.4708 32.7286 24.0977 33.6277L24.918 33.0557ZM24.1 30.3333C24.1 27.936 25.684 26.1667 27.45 26.1667V25.1667C24.9604 25.1667 23.1 27.5723 23.1 30.3333H24.1ZM27.45 26.1667H28.55V25.1667H27.45V26.1667ZM28.55 26.1667C30.316 26.1667 31.9 27.936 31.9 30.3333H32.9C32.9 27.5723 31.0396 25.1667 28.55 25.1667V26.1667ZM26.3 32.0958V30.448H25.3V32.0958H26.3ZM24.75 30.3333C24.75 31.1078 24.9862 31.8341 25.3974 32.3924L26.2026 31.7993C25.9263 31.4242 25.75 30.9089 25.75 30.3333H24.75ZM31.2478 30.4549C31.2493 30.4146 31.25 30.3741 31.25 30.3333H30.25C30.25 30.362 30.2495 30.3906 30.2485 30.4191L31.2478 30.4549ZM31.25 30.3333C31.25 30.2874 31.2491 30.2417 31.2472 30.1963L30.248 30.2366C30.2493 30.2687 30.25 30.301 30.25 30.3333H31.25ZM26.3 36.3333C26.3 35.0473 25.5322 33.9367 24.918 33.0557L24.0977 33.6277C24.7457 34.5571 25.3 35.4124 25.3 36.3333H26.3ZM30.7 30.3268C30.7 30.2025 30.7487 30.3284 30.5663 30.3658C30.465 30.3866 30.3565 30.3514 30.289 30.2797C30.2329 30.2201 30.2458 30.181 30.248 30.2366L31.2472 30.1963C31.2388 29.9882 31.178 29.7651 31.0172 29.5943C30.845 29.4114 30.601 29.3378 30.3653 29.3862C29.9145 29.4787 29.7 29.9234 29.7 30.3268H30.7ZM37.85 29.6667C37.85 29.4536 37.7988 29.2225 37.6433 29.0414C37.4744 28.8448 37.2232 28.76 36.9766 28.8095C36.5134 28.9025 36.3 29.366 36.3 29.7771H37.3C37.3 29.7167 37.3146 29.7009 37.3073 29.7124C37.3025 29.7199 37.2656 29.7714 37.1734 29.7899C37.1261 29.7994 37.0698 29.7981 37.0129 29.7785C36.9555 29.7587 36.9127 29.7256 36.8848 29.6932C36.8324 29.6321 36.85 29.5983 36.85 29.6667H37.85ZM26.3 30.448C26.3 30.042 26.1024 29.5538 25.6271 29.4547C25.3666 29.4003 25.1113 29.4992 24.9474 29.7017C24.7984 29.8856 24.75 30.1178 24.75 30.3333H25.75C25.75 30.2511 25.7703 30.2745 25.7245 30.331C25.6994 30.362 25.6574 30.3978 25.597 30.4201C25.5364 30.4425 25.4751 30.4445 25.4229 30.4336C25.3223 30.4126 25.2867 30.3547 25.2863 30.3541C25.2829 30.3485 25.3 30.3743 25.3 30.448H26.3ZM31.082 33.0557C30.4678 33.9367 29.7 35.0473 29.7 36.3333H30.7C30.7 35.4124 31.2543 34.5571 31.9023 33.6277L31.082 33.0557ZM32.9 35C32.9 34.5222 33.0564 34.0373 33.2928 33.5403L32.3898 33.1107C32.1244 33.6686 31.9 34.3096 31.9 35H32.9ZM22.6985 33.5489C22.9389 34.0466 23.1 34.5269 23.1 35H24.1C24.1 34.3068 23.8658 33.6664 23.599 33.114L22.6985 33.5489ZM18.15 29.6667C18.15 29.8821 18.1986 30.1143 18.3477 30.298C18.5119 30.5003 18.767 30.5985 19.0269 30.5444C19.5018 30.4456 19.7 29.9583 19.7 29.5522H18.7C18.7 29.6253 18.683 29.6507 18.6866 29.6448C18.6871 29.6439 18.7228 29.5863 18.8231 29.5654C18.8751 29.5546 18.9362 29.5566 18.9966 29.5788C19.0569 29.601 19.0989 29.6367 19.1241 29.6678C19.1702 29.7245 19.15 29.7483 19.15 29.6667H18.15ZM37.3093 32.847C36.8012 33.3813 36.3 34.1173 36.3 35H37.3C37.3 34.5007 37.5898 34.0032 38.034 33.536L37.3093 32.847ZM23.3924 28.0756C23.6422 27.3926 23.7511 26.5642 23.5876 25.8723C23.5047 25.5216 23.344 25.1752 23.063 24.9136C22.7732 24.6438 22.3936 24.5 21.95 24.5V25.5C22.1659 25.5 22.2944 25.5644 22.3815 25.6454C22.4773 25.7346 22.5624 25.882 22.6144 26.1023C22.7208 26.5526 22.6566 27.1762 22.4532 27.732L23.3924 28.0756ZM33.5474 27.7336C33.3439 27.1771 33.2794 26.553 33.3856 26.1025C33.4376 25.882 33.5225 25.7347 33.6183 25.6455C33.7053 25.5644 33.8338 25.5 34.05 25.5V24.5C33.6062 24.5 33.2265 24.6438 32.9367 24.9137C32.6556 25.1756 32.495 25.5221 32.4123 25.873C32.2491 26.5651 32.3584 27.3937 32.6081 28.0769L33.5474 27.7336ZM29.7 30.3268C29.7 30.7318 29.916 31.1762 30.3669 31.2683C30.6025 31.3165 30.8469 31.2429 31.0193 31.0591C31.1802 30.8874 31.2403 30.6634 31.2478 30.4549L30.2485 30.4191C30.2465 30.4749 30.2333 30.4353 30.2897 30.3752C30.3575 30.3029 30.4661 30.2679 30.567 30.2886C30.7486 30.3257 30.7 30.4507 30.7 30.3268H29.7ZM19.7 35C19.7 34.1173 19.1985 33.3814 18.6904 32.8472L17.9658 33.5364C18.4101 34.0035 18.7 34.5008 18.7 35H19.7Z" fill="#6B98FF" mask="url(#path-2-outside-1_649_20583)"/>
</svg>
