<svg width="56" height="56" viewBox="0 0 56 56" fill="none" xmlns="http://www.w3.org/2000/svg">
<rect x="2.5" y="2.5" width="51" height="51" rx="25.5" fill="white" stroke="#A0D1FF" stroke-width="5"/>
<path d="M24.3858 27.5648H24.2358V27.6874C24.0611 28.1504 23.9039 28.6249 23.7542 29.098L23.6924 29.2933L23.8972 29.2933L26.8958 29.2935L27.0241 29.2935L27.044 29.1667C27.1201 28.682 27.2155 28.2086 27.3301 27.7513L27.3769 27.5648H27.1846H24.3858Z" fill="#6B98FF" stroke="#6B98FF" stroke-width="0.3"/>
<path d="M33.6067 25.8275C32.9921 24.7897 32.0389 23.9676 30.6198 23.434C31.0429 23.3277 31.5564 23.2667 32.1141 23.2392C32.8701 23.2019 33.694 23.2267 34.4581 23.2767C35.2218 23.3267 35.9234 23.4017 36.4342 23.4642C36.6895 23.4955 36.897 23.5236 37.0405 23.5439C37.1122 23.554 37.168 23.5622 37.2057 23.5678L37.2485 23.5743L37.2593 23.576L37.262 23.5764L37.2626 23.5765L37.2628 23.5765L37.286 23.4283L37.2628 23.5765L37.5648 23.6238L37.4174 23.356C35.9759 20.7365 32.69 19.5888 28.7892 21.0951C27.7766 19.055 25.8109 17.9972 24.1065 17.4487C23.2347 17.1682 22.4248 17.0187 21.833 16.9392C21.5369 16.8995 21.295 16.8772 21.1266 16.8649C21.0424 16.8587 20.9766 16.855 20.9316 16.8529C20.909 16.8518 20.8917 16.8511 20.8799 16.8507L20.8663 16.8502L20.8627 16.8501L20.8616 16.8501L20.8613 16.8501C20.8612 16.85 20.8612 16.85 20.8574 17L20.8612 16.85L20.7955 17.1366L20.7955 17.1366L20.7955 17.1366L20.7956 17.1367L20.7962 17.1369L20.7988 17.1381L20.8094 17.143L20.852 17.163C20.8896 17.1808 20.9452 17.2074 21.0162 17.2426C21.1583 17.313 21.3622 17.4175 21.6088 17.5534C22.1021 17.8253 22.7644 18.2222 23.4412 18.7222C24.7248 19.6706 26.0259 20.9646 26.3705 22.4565C25.0923 21.9201 23.4574 21.9324 22.0151 22.2444C21.2397 22.4122 20.5121 22.6681 19.9158 22.9787C19.3229 23.2875 18.8453 23.6579 18.588 24.0622L18.4413 24.2927H18.7145C21.8957 24.2927 24.1907 24.5104 25.6137 24.9373C25.3443 25.3229 25.1029 25.7619 24.8768 26.2193L24.7698 26.4358L25.0113 26.4357L27.6488 26.4356L27.748 26.4356L27.7868 26.3444C27.8817 26.1218 27.9792 25.9099 28.0872 25.7197C29.2571 25.7124 30.4362 26.2216 31.5096 27.0031C32.6071 27.8022 33.5816 28.8771 34.3048 29.941L34.5927 30.3645L34.5788 29.8526C34.5379 28.3421 34.2789 26.9627 33.6067 25.8275Z" fill="#6B98FF" stroke="#6B98FF" stroke-width="0.3"/>
<path d="M38.0003 35.4212C35.5942 35.416 32.4377 34.7067 30.1196 34.0165L30.1196 34.0165C29.0046 33.6845 27.8727 33.3492 26.7233 33.0845C26.7396 32.3536 26.777 31.49 26.8628 30.5854L26.8783 30.4213H26.7134H23.4717H23.358L23.3273 30.5307C23.208 30.9552 23.0941 31.3737 22.9862 31.77C22.9095 32.0515 22.8359 32.3219 22.7656 32.5752C21.2019 32.5667 19.5974 32.823 17.9418 33.5201L17.85 33.5588V33.6584V36.9914C17.85 37.0789 17.921 37.1499 18.0085 37.1499H38H38.15V36.9999V35.5712V35.4216L38.0003 35.4212ZM21.5717 35.4214C21.26 35.4214 21.0073 35.1688 21.0073 34.8571C21.0073 34.5454 21.2599 34.2927 21.5717 34.2927C21.8833 34.2927 22.136 34.5453 22.136 34.8571C22.136 35.1686 21.8833 35.4214 21.5717 35.4214ZM26.5717 36.1355C26.26 36.1355 26.0073 35.8829 26.0073 35.5712C26.0073 35.2596 26.2599 35.0069 26.5717 35.0069C26.8833 35.0069 27.136 35.2595 27.136 35.5712C27.136 35.883 26.8835 36.1355 26.5717 36.1355Z" fill="#6B98FF" stroke="#6B98FF" stroke-width="0.3"/>
</svg>
