<svg width="56" height="56" viewBox="0 0 56 56" fill="none" xmlns="http://www.w3.org/2000/svg">
<rect x="2.5" y="2.5" width="51" height="51" rx="25.5" fill="white" stroke="#A0D1FF" stroke-width="5"/>
<path d="M24.0143 17.0232L24.0152 17.0218L23.8452 16.954C23.4976 16.8153 23.0887 16.8153 22.7409 16.954L22.7407 16.9541C20.7572 17.7486 19.3702 18.8729 18.4427 20.2694C17.5163 21.6645 17.0556 23.3207 16.9062 25.1688C16.6083 28.8524 17.546 33.3381 18.5454 38.1191L18.5493 38.1374C18.5493 38.1375 18.5493 38.1376 18.5493 38.1377L18.5493 38.1378L18.6961 38.1071C18.8002 38.6104 19.0496 38.9998 19.7816 38.9998H26.8049C27.5374 38.9998 27.7863 38.6098 27.8903 38.1067M24.0143 17.0232L28.0371 38.1374L27.8903 38.1067M24.0143 17.0232L23.931 17.1511C31.6045 20.333 29.8826 28.5728 27.8909 38.1041L27.8903 38.1067M24.0143 17.0232C25.9078 17.8134 27.2423 18.913 28.1432 20.2695C29.0696 21.6646 29.5303 23.3208 29.6797 25.1688C29.9776 28.8518 29.0404 33.3365 28.0415 38.1164L28.0372 38.1371L27.8903 38.1067M27.3417 25.7519C27.4939 28.926 26.7055 32.8611 25.7839 37.2785H20.8019C19.8805 32.8608 19.0921 28.9258 19.2442 25.7517C19.3209 24.1533 19.6359 22.7583 20.2856 21.597C20.9244 20.4553 21.8913 19.5306 23.293 18.8596C24.6947 19.5306 25.6616 20.4552 26.3003 21.597C26.95 22.7584 27.2651 24.1534 27.3417 25.7519Z" fill="#6B98FF" stroke="#6B98FF" stroke-width="0.3"/>
<path d="M24.4936 35.0714V32.7144C24.4936 32.4395 24.3444 32.2021 24.1259 32.0387C23.9075 31.8753 23.6126 31.7787 23.2931 31.7787C22.9736 31.7787 22.6787 31.8753 22.4602 32.0388C22.2417 32.2022 22.0925 32.4396 22.0925 32.7144V35.0714C22.0925 35.3464 22.2417 35.5837 22.4602 35.7472C22.6787 35.9106 22.9736 36.0071 23.2931 36.0071C23.6126 36.0071 23.9075 35.9105 24.1259 35.7471C24.3444 35.5836 24.4936 35.3463 24.4936 35.0714Z" fill="#6B98FF" stroke="#6B98FF" stroke-width="0.3"/>
<path d="M31.6864 18.2266L31.6864 18.2266L31.6868 18.2272C32.7954 19.844 33.6478 21.383 33.6478 23.2862V38.2142C33.6478 38.4892 33.797 38.7265 34.0155 38.89C34.2339 39.0534 34.5288 39.15 34.8483 39.15C35.1678 39.15 35.4628 39.0533 35.6812 38.8899C35.8997 38.7264 36.0489 38.4891 36.0489 38.2142V36.0073H36.9494C37.269 36.0073 37.5639 35.9106 37.7823 35.7472C37.999 35.5851 38.1476 35.3502 38.15 35.0782L38.15 35.0782V35.0711C38.15 34.6561 37.9216 34.0548 37.5465 33.4899C37.1849 32.9452 36.6713 32.4104 36.0489 32.0877V23.2859C36.0489 20.9765 35.0624 19.186 33.8075 17.3458C33.6499 17.1144 33.3899 16.962 33.1079 16.8931C32.8248 16.824 32.5064 16.8354 32.2175 16.9457C31.929 17.0555 31.7133 17.2479 31.611 17.4829C31.507 17.7214 31.5263 17.9908 31.6864 18.2266Z" fill="#6B98FF" stroke="#6B98FF" stroke-width="0.3"/>
</svg>
