<svg width="29" height="25" viewBox="0 0 29 25" fill="none" xmlns="http://www.w3.org/2000/svg">
<path d="M2.34325 0.75C1.42051 0.75 0.75 1.64097 0.75 2.63464C0.75 3.12033 0.908128 3.59371 1.20028 3.94923C1.49356 4.30614 1.90308 4.51929 2.34325 4.51929H13.1568C13.5969 4.51929 14.0064 4.30614 14.2997 3.94923C14.5919 3.59371 14.75 3.12033 14.75 2.63464C14.75 2.14895 14.5919 1.67558 14.2997 1.32005C14.0064 0.963148 13.5969 0.75 13.1568 0.75H2.34325ZM2.34325 10.6154C1.42051 10.6154 0.75 11.5063 0.75 12.5C0.75 12.9857 0.908128 13.4591 1.20028 13.8146C1.49356 14.1715 1.90308 14.3846 2.34325 14.3846H26.6567C27.0969 14.3846 27.5064 14.1715 27.7997 13.8146C28.0919 13.4591 28.25 12.9857 28.25 12.5C28.25 12.0143 28.0919 11.5409 27.7997 11.1854C27.5064 10.8285 27.0969 10.6154 26.6567 10.6154H2.34325ZM2.34325 20.4807C1.90308 20.4807 1.49356 20.6939 1.20028 21.0508C0.908129 21.4063 0.75 21.8797 0.75 22.3654C0.75 22.851 0.908129 23.3244 1.20028 23.6799C1.49356 24.0368 1.90308 24.25 2.34325 24.25H18.5568C18.9969 24.25 19.4064 24.0368 19.6997 23.6799C19.9919 23.3244 20.15 22.851 20.15 22.3654C20.15 21.8797 19.9919 21.4063 19.6997 21.0508C19.4064 20.6939 18.9969 20.4807 18.5568 20.4807H2.34325Z" fill="white" stroke="white" stroke-width="0.5"/>
</svg>
