<svg width="25" height="25" viewBox="0 0 25 25" fill="none" xmlns="http://www.w3.org/2000/svg">
<path d="M13.3827 6.18674C13.1486 5.95263 12.8311 5.82111 12.5 5.82111C12.1689 5.82111 11.8514 5.95263 11.6173 6.18674C11.3832 6.42085 11.2517 6.73837 11.2517 7.06944V11.2517H7.06944C6.73837 11.2517 6.42085 11.3832 6.18674 11.6173C5.95263 11.8514 5.82111 12.1689 5.82111 12.5C5.82111 12.8311 5.95263 13.1486 6.18674 13.3827C6.42085 13.6168 6.73837 13.7483 7.06944 13.7483H11.2517V17.9306C11.2517 18.2616 11.3832 18.5792 11.6173 18.8133C11.8514 19.0474 12.1689 19.1789 12.5 19.1789C12.8311 19.1789 13.1486 19.0474 13.3827 18.8133C13.6168 18.5792 13.7483 18.2616 13.7483 17.9306V13.7483H17.9306C18.2616 13.7483 18.5792 13.6168 18.8133 13.3827C19.0474 13.1486 19.1789 12.8311 19.1789 12.5C19.1789 12.1689 19.0474 11.8514 18.8133 11.6173C18.5792 11.3832 18.2616 11.2517 17.9306 11.2517H13.7483V7.06944C13.7483 6.73837 13.6168 6.42085 13.3827 6.18674ZM2.01126 2.01126C1.17808 2.84444 0.71 3.97448 0.71 5.15278V19.8472C0.71 21.0255 1.17808 22.1556 2.01126 22.9887C2.84444 23.8219 3.97448 24.29 5.15278 24.29H19.8472C21.0255 24.29 22.1556 23.8219 22.9887 22.9887C23.8219 22.1556 24.29 21.0255 24.29 19.8472V5.15278C24.29 3.97448 23.8219 2.84444 22.9887 2.01126C22.1556 1.17808 21.0255 0.71 19.8472 0.71H5.15278C3.97448 0.71 2.84444 1.17808 2.01126 2.01126ZM3.77667 3.77667C4.14164 3.4117 4.63664 3.20667 5.15278 3.20667H19.8472C20.3634 3.20667 20.8584 3.4117 21.2233 3.77667C21.5883 4.14164 21.7933 4.63664 21.7933 5.15278V19.8472C21.7933 20.3634 21.5883 20.8584 21.2233 21.2233C20.8584 21.5883 20.3634 21.7933 19.8472 21.7933H5.15278C4.07861 21.7933 3.20667 20.9214 3.20667 19.8472V5.15278C3.20667 4.63664 3.4117 4.14164 3.77667 3.77667Z" fill="white" stroke="white" stroke-width="0.58"/>
</svg>
